<?xml version="1.0" standalone="no"?>
<!DOCTYPE svg PUBLIC "-//W3C//DTD SVG 20010904//EN"
 "http://www.w3.org/TR/2001/REC-SVG-20010904/DTD/svg10.dtd">
<svg version="1.0" xmlns="http://www.w3.org/2000/svg"
 width="2706.000000pt" height="2706.000000pt" viewBox="0 0 2706.000000 2706.000000"
 preserveAspectRatio="xMidYMid meet">
<metadata>
Created by potrace 1.14, written by Peter Selinger 2001-2017
</metadata>
<g transform="translate(0.000000,2706.000000) scale(0.100000,-0.100000)"
fill="#000000" stroke="none">
<path d="M8331 16654 l1 -2024 979 0 c925 0 979 1 980 18 0 9 1 477 1 1039 0
751 3 1023 12 1025 6 3 473 4 1038 4 680 -1 1029 2 1031 9 3 9 1 1933 -2 1945
0 3 -910 6 -2021 6 l-2020 2 1 -2024z"/>
<path d="M14421 18670 c-4 -3 -7 -1588 -8 -3522 l-1 -3518 2774 0 2774 0 -2
3522 -3 3523 -993 0 c-598 0 -996 -4 -1000 -9 -3 -5 -6 -361 -6 -790 l-1 -781
-787 -1 c-587 -2 -788 1 -789 10 -1 6 -3 355 -4 776 -1 421 -3 772 -4 780 -1
13 -116 15 -972 15 -534 0 -974 -2 -978 -5z m3536 -4205 l0 -833 -791 0 -791
0 0 832 0 833 791 0 791 0 0 -832z"/>
<path d="M21540 16654 l0 -2024 980 0 980 0 2 1043 3 1042 978 0 977 0 -2 980
-3 979 -1957 2 -1958 2 0 -2024z"/>
<path d="M1599 18603 c0 -5 -2 -447 -4 -983 -3 -536 -6 -997 -8 -1025 -3 -27
-8 -99 -11 -160 -4 -60 -9 -121 -11 -135 -2 -14 -6 -56 -10 -95 -8 -98 -15
-151 -30 -255 -4 -25 -9 -58 -11 -75 -2 -16 -9 -52 -14 -80 -5 -27 -12 -62
-15 -77 -3 -16 -7 -40 -10 -55 -3 -16 -19 -80 -36 -143 -127 -485 -325 -806
-653 -1059 -95 -73 -281 -190 -354 -222 l-32 -14 0 -901 0 -902 72 19 c222 58
521 187 773 334 119 69 450 298 485 335 3 3 17 15 32 26 104 80 334 302 444
429 92 106 152 185 229 300 l63 96 37 -63 c96 -161 254 -378 390 -534 65 -76
324 -337 395 -399 230 -201 455 -360 661 -467 l84 -44 57 31 c31 16 80 43 110
59 142 77 414 276 583 427 90 81 292 286 360 364 33 39 62 72 65 75 44 43 241
313 318 437 l70 113 43 -68 c149 -230 317 -428 524 -615 147 -132 149 -135
281 -234 309 -232 643 -415 979 -538 77 -28 228 -74 260 -79 6 0 9 333 10 897
l0 898 -90 51 c-277 157 -463 314 -635 535 -17 22 -85 128 -103 163 -11 19
-29 53 -41 75 -96 173 -212 555 -250 820 -4 23 -8 50 -10 60 -2 11 -7 45 -10
76 -4 31 -8 65 -10 75 -5 25 -16 126 -21 189 -2 28 -6 82 -9 120 -22 283 -25
419 -25 1388 l-1 837 -892 0 -893 0 0 -873 c0 -787 -6 -1126 -20 -1317 -7 -97
-22 -259 -31 -330 -3 -25 -7 -61 -9 -80 -22 -183 -64 -394 -115 -575 -92 -324
-235 -587 -431 -789 l-67 -70 -59 60 c-120 120 -257 323 -327 484 -15 36 -34
79 -41 95 -7 17 -25 68 -40 115 -15 47 -30 92 -33 100 -3 8 -6 20 -7 25 -2 6
-13 48 -25 95 -12 47 -24 96 -26 110 -3 14 -11 57 -19 95 -26 133 -54 343 -70
530 -3 39 -8 93 -10 121 -20 226 -24 459 -24 1387 l-1 817 -890 0 c-490 0
-890 -3 -891 -7z"/>
<path d="M23819 13646 c-2 -2 -42 -6 -89 -10 -47 -3 -101 -9 -120 -12 -834
-126 -1529 -583 -1965 -1289 -182 -294 -325 -681 -371 -1005 -2 -19 -6 -46 -9
-59 -23 -127 -27 -550 -6 -696 7 -49 14 -101 16 -115 2 -14 9 -50 15 -80 6
-30 13 -66 16 -80 3 -14 7 -33 10 -42 3 -10 7 -28 9 -40 22 -117 174 -512 234
-608 6 -8 22 -37 37 -65 38 -72 142 -227 210 -316 430 -558 1039 -923 1739
-1044 17 -3 41 -7 55 -9 163 -28 618 -29 770 -1 25 5 40 7 120 20 82 13 275
64 391 103 610 208 1124 624 1466 1185 29 48 53 90 53 93 0 2 11 21 24 42 12
20 24 39 24 42 1 3 17 41 37 85 58 128 61 135 98 240 78 225 121 418 144 650
15 151 8 529 -11 630 -2 11 -7 43 -10 70 -12 85 -54 265 -92 385 -69 220 -149
399 -267 595 -50 85 -169 259 -186 275 -4 3 -26 30 -51 60 -119 147 -263 286
-463 446 -34 27 -203 140 -262 175 -224 131 -546 261 -755 304 -8 2 -35 8 -60
14 -46 10 -154 28 -225 37 -22 3 -51 8 -65 10 -30 6 -455 15 -461 10z m286
-1910 c174 -20 359 -110 485 -238 44 -45 120 -142 120 -154 0 -4 6 -15 13 -23
20 -23 64 -136 83 -211 34 -138 24 -324 -27 -465 -52 -142 -180 -310 -299
-392 -381 -260 -894 -165 -1145 212 -66 99 -89 150 -119 264 -21 76 -24 108
-21 213 3 127 19 203 64 300 11 26 21 50 21 54 0 3 20 36 45 73 146 217 365
346 628 370 45 4 84 6 87 5 3 -1 32 -5 65 -8z"/>
</g>
</svg>
